<?xml version="1.0" encoding="UTF-8"?>
<svg id="Layer_2" data-name="Layer 2" xmlns="http://www.w3.org/2000/svg" viewBox="0 0 2537.9 89.4" preserveAspectRatio="none">
  <g id="Layer_2-2" data-name="Layer 2">
    <path d="m2535.1,0l-1.2.3c-3.6-.3-8.1-.3-12.7,0-.9,0-.3-.2,0-.3-1.8,0-3.8.4-4.8.6h-4.5c.1,0,.2,0,.3,0h-2.7c.6,0-.2.3-1.4.4-4.8.4-6.9,0-7.2,0l3.6-.2c-1.8-.4-5.4-.3-9.4,0s-8.4.7-12,.9l2.9-.8-7.3.8c-1.6,0-2.6-.4.9-.7-5.1,0-4.5.4-8.9.3-.5,0-.3,0,.2,0l-5,.5c1-.2-.9-.4,2.2-.5-9,.2-14.5,1.3-17.9,1h.7c-12.4,1-1.2.4-10.5,1.7l-6.4-.7-1.2.5c-1.3,0-3.8.2-3.4,0-4.8.7.8,0-1.9.7-6.2,0-17,1.7-18.4,1.1-2.2.5,5.9-.3-.6.6-2-.7-7.6.9-13.3,1.1,1.7-.6,7-.9,1.4-.7-3.3,1.1-11,1-15.7,1.7h0c-.1,0-.2,0-.6-.2-1.1,0-1.6.5-2,.8-3.5.5-10.1,1.2-15.6,2,.5-.3-15,1.8-22.4,2.6h.2c-1.4.6-9,1.8-14.5,2.7.2-.4,1.1-.7,4.1-1.3l-4.5.7c.1,0,.3,0,.4-.2l-2.5.6h.4c-1.1.2-2.7.5-5.2.9l1.2-.6c-6.9,1.1-13.8,2.9-22.8,4.1-.4.5,7.2-.2-2.1,1.7-.4-.2-.8-.4,1.6-1-.8.2-2.8.7-4.5.9,1.2-.3,2.4-.7,3.7-1-4.1.5-2,.7-5.3,1.2,0-.3-2.4.2-2,0,.8-.2,2.8-.4,4.1-.8-3.6.6-8.1,1.3-9.6,1.4.3,0,.1.4-2.6.9-6.9,1.3-2.4,0-6.5.7-1.6.5-6,1.2-6.1,1.7-2,.4-2.4.3-3.2.3-3.5.9-16.6,3.5-12.5,3.1l.9-.2h-.6c-.4.2-.8.3-1.2.4s-.7,0-1.2.2l1-.2c-11.2,2.8-23.3,4.8-34.3,7.7v-.2c-3.4.9-7.2,1.9-10.8,2.8-3.5,1-6.8,1.9-9.2,2.7-2,.5-4.8,1-4,.6-5.2,1.5-5.7,1.7-13.3,3.6,5.1-1.7-1.9.3,5.3-1.6-6.8,1.7-8.4,1.9-15.5,4.3,2.4-1.1-5.2,1-8.4,2l4.8-1c-3.6,1.1-6.7,1.9-9.9,2.8l1.6-1c-13.9,3.3-24.5,8-35.3,10-3.6,1.4,7.5-1.9,4.4-.5-6.3,1.7-13.1,2.8-15.1,3.3-8.8,2-7.9,2.9-17.1,5,1.2,0,2.4,0-4.4,1.9-6.4,1.5-8,1.2-4,0,1.5-.4,2.3-.5,2.2-.4,2-.6,4.7-1.3,2.2-.9l-.8.4c-3.2.7-12,2.7-10,1.9-4.8,1.3-2,.8,1.6,0-4.1.8-7.3,1.5-10.6,2.3-3.2.7-6.5,1.4-10.8,2.2,1.4-.2,2.7-.2,1.3,0-12.5,2.2-5.4,1.4-13.9,3.1-4.9.6,1.6-.9-6.9.7-5.3.6-1.2-.3.9-.8-3.9.8-7.5,1.4-10.8,1.6-3.2.3-6.1.5-8.3.7l4.1-.7c-2.4.4-4.5.6-6.5.9h2.4c-2.4.4-4.5.5-4.4.4-2.5.5,2,.4-3,1.2-3.2,0-9.9,1.1-11,.6,9.1-.5,1-.4,5.3-.9-1.2,0-2.5.2-4,.3-.4,0,.3,0,1-.2-9.8,0-4.4.9-14.6,1.2,1.3-.3-2.4-.5-4-.4,4.1,0,2,.4-1.8.7-6.5,0-7.1.2-10.5,0l3.9.2c-1.3.2-4.6,0-9.1,0-.4-.2,4.1,0,2.5-.2-2.5.2-5.4,0-8.4-.4-3.1-.4-6.4-.7-9.9-.9-3.2-.5-.3-.5-3.1-.9-7.9-.4-8.4-1.2-16.7-2,2.3.7,2.7.6-3.1.2,4.5.5,9,1,13.5,1.4-2.9,0-5.8-.4-8.7-.5,4.1.5,8.6.9,11.1,1.2-4.2,0-3.7-.2-1.8.3-2.8-.5-5.5-.9-8.4-1.1-2.9-.3-5.9-.5-9.1-1.2l.3-.9c-4.8-1-9.1-1.5-13.7-2.2-2.3-.3-4.7-.7-7.4-1.1-2.6-.5-5.4-1-8.5-1.7l4,1c-1.7,0-7.7-1.4-11.7-2.2.4-.2-2-.9-3.7-1.4h-.1c-.1,0-.5-.2-1.1-.4.2,0,.6.2,1,.4-1.2,0-9-2-10.1-1.8l-5.4-1.7c-9.9-2.6-11.6-1.9-21.1-4.4,3,.4-1.3-.9,5.1.5-3.2-.8-6-1.6-6.1-1.4-1.4-.5-5.8-1.3-9.1-2.1-.4,0-.7-.2-1-.3.3,0,.6.2,1,.3-.7-.2-1.4-.4-1.9-.5.3,0,.6,0,.9.2-.4,0-.8-.2-1.3-.4-.1,0-.2,0-.3,0s-.3,0-.4,0h-.1c-1.1,0-1.9,0-5.1-.9q-.2,0-.1,0c-.8,0-5.3-1.2-2.5,0-9.3-3.4-26.4-6.9-35-9.7l.7.2-1.4-.4q0,0-.2,0c0,0-.2,0-.3,0h-.5c0,0,0,0,0,0-6.9-1.7-15.1-3.4-21.3-4.8.4,0,0,0,1.2.2-8.7-2.3-5.6-.4-15.5-3-5-1.7,5.4,1,2.2,0-.6-.6-3.6-1.3-7.3-2-3.7-.7-8.1-1.4-11.4-2.4l1.7.3c-5.1-1.4-12.7-2.2-21.1-4,0,0,.4,0,0,0-5.9-.7-16.9-2.4-25.1-3.8,2.6,0,3.7.5,2.3-.2-3.7-.6,1,.8-6.4-.4-2.3-.6-7.6-1.8-8.2-2.3,2.3.4,4.6.8,6.9,1.2-3.4-1.2-8.9-1.5-12.6-2.2l.5-.2c-10.6-1.6-10.9-1-22.2-2.9l1.2.4c-6.3-.4-5.2-1.2-11.4-1.6l-1.8-.9c-4.1-.4-14.5-1.4-21.9-2.3,4.2,0,12.9,1.1,18.3,1.5-4.1-.6-13.9-1.9-16-1.9,1.7.2,3.7.3,5.4.6-5.1-.2-11.7-1-19.8-1.9,1.6-1-21.2-2.7-27-4.3-7.3-.5-14.4-1.2-21.9-2-3.7-.4-7.5-.8-11.5-1.2-3.9-.4-8-.7-12.2-1,5.9,1.4-4.9-.3-4,.7-3.8-.2-5.3-.4-5.7-.4.7,0,6.9,0,.7-.8,4.7.7-5.4,0-2.9.5l-9.7-1.2c-2.8-.5,3.7,0,3.4-.2-8.6-.7-3.6-.7-9.3-1.3,1.2.4-3,.3-7.9,0l6.9.8c-12.1-.2-10.4-1.4-22.5-1.6h3.9c-6.2-.4-23-1.2-29.1-.7-1.1-.2-2.6-.5.2-.4-14.9-.9-33.2-.2-44.7-1l1.1-.2c-2.8,0-4.8.3-8.3,0,.2,0,1.1-.2-.2-.2-1.5,0-7.4.3-11.1.2l3.2-.2c-14.5-.4-22.3.3-34.5.6,0-.7-11.4-.8-17.1-.9h.2c-16.9,0-28.8.9-44.4,1.5-9.7-.4-33,.6-48.6,1,2.4,0-.4.5-3.1.7-3.7,0-10.1.9-9.6.2h1.3c-2.8-.5-10.3,0-16.2.3l-.9.9c-15.5-.5-40.3,2.7-48.7,2.2-3.7.4-8.3.7-11.9,1.2l.2-.4c-10.3.6-15.4.9-28.1,1.9l2.6-.5c-7.2.5-8.9,1.9-15.5,2.5l-2-.5c-12.5.9-25.2,1.4-37.4,3.1.2,0,.5-.3,2.6-.5-5.7.5-21.6,1.4-20.7,2.1-1.5-.3-13.1,1.2-19.4,2l1-.5c-5.6,1-5.8,1.2-13.7,2.1-1.9,0-1.7-.2.8-.3-6.3.4-4.8.9-12.5,1.4l2.8-.5c-6.5.6-5.9.7-9.4,1.3-4,.5-12.2,1-13.2.8-.9.3-4.3,1-8.2,1.2-.5,0,.9-.3,1.5-.4-10.8.8-16,2.1-23.4,2.4-.2,0-.7-.2-1.3,0,7.9-.8,14.3-1.4,14.8-1.4,0-.4-6.9.2-1.5-.8-5.5.9-15,2.4-21.7,2.9h-.9.7c-1.6,0-2.9.2-4.3.4-2.2.2-3.5.2-5.6.4-.8-.2-8,.6-11.4,1,.3.4-4.1.8,0,.7,0,0,.7,0,2.2-.3h0,1.4l.8-.2h-.5c0,0,.7,0,.7,0h-.2c2.3-.1,5.2-.4,8.6-.8-2.7.5-5.5,1-9.4,1.1-1.7.5-3.7.9-4.8,1.2-4.8,0-13.9.5-15.2.2-10.5,1.3-24.8,2.7-31.3,4.2-3,.4-3.5,0-4.6,0,1.7-.3,3.8-.5,4.7-.7-6,.8-17.7,1.9-19.1,2.6-7.6.5,4.2-1-6.2.2l1.4-.3c-20.3,1.2-32.8,4.8-55.1,6,1.2,0,1.8,0,2.1,0-25.8,2.1-53.1,5.9-78.6,7.5-7.2.5-8,1-12.4,1.7l-1.6-.3-7.5,1.2c-5.3.7-10,.9-15,1.1s-5.1.3-7.9.4c-2.8,0-5.9.2-9.2.5l1.8.2c-4.9,0-15.5.7-14.7.3-.5,0-1.6.4-3.5.3l-.2-.2-12,.8c-9.3.2,1.4-1-12.2-.6-.6,0-1.3,0-2,0h0l-15.3.2H0v3.3h631.9c4.1,0,8.3,0,10.4,0h1l7.9-.7,2.6.3-6.6.3c3.8.2,6.2-.2,8.8-.5.6.2,1.8.3,3.3.3l7.7-.9c1,.2-3.4.7,1.8.7,3.6-.4-3.5-.5,2.5-.9,3.8.2,2.7.5,7.1,0,.6.2-.3.3-2,.5,3.9-.3,10.4-.5,12.5-.9,2,0,5.3,0,8.1,0,2.7,0,4.8-.3,4.8,0-.2,0-.3,0,0,0h0c1.3-.3,6.9-1.2,10.4-1.5-6.5,1.4,13.5-1.2,11.9-.2,4.8-1.2,17.6-2,26.2-3.2-.5,0-1.4.3-2.2.3,4.9-.4,6.3-.3,9.4-.5.6-.7,8.1-1.5,12.2-2.3,6,0-3.6,1.1-1.6,1.4-.3-.5,10.3-1.5,8.2-1.7,4.6,0,3.9-.2,6.3,0,.7-.8,4.2-.5,8-1.4,6.6-.3,1.8.5,9-.4,3,0-1.3.5-2.6.7,7-.7,3.1-.9,4.7-1.3,8.8-1.1,4.1,0,7.1,0,5.5-.7,9.7-1.7,13.8-2,.3,0,1.1,0,.2.2,5.8-1,17.3-1.8,24-3.1h.7c-1-.2-1.2-.4-1-.6,3.3-.3,6.1-1,7.4-.7-2,.2-2.2.4-3.1.6l3.4-.5c3.2.2-4.7.7-4.7,1.1,6.7-.9,14.6-2.1,19.8-2.5,1.1.4-12.1,1.4-5.1,1.2l-8,.6c6.2.2-4.9.4.9.7,10.5-.9,11.8-1.5,22.3-2.4,2.3-.5-.8-.3,1.5-.9,14.9-2,11.9,0,22.8-1.7,2.8-.6,3.8-1.4,11.7-1.9l-2.6.9c10.2-1,5.7-1.4,16.5-2.1-1.9.4-8,1-6.5.9,7-.2,4.9-.8,10.2-1.4l1.2.4c10.9-1.3,22.8-2.7,34.8-4.1-.7.2-2.7.6,0,.5,15.2-1.7,32.4-3.2,47.1-4.2l5.6-1c1.3,0,2.4,0,1,.2,5.7-.4.3-.3,3-.7,3.2-.3,4.3-.2,2.3.2,10-1.4,28.6-3.4,39.3-3.9l-2,.3c8.3-.6,9.3-1.7,17-2l-1.5.2c9-.7,18.4-1.5,27.4-2.2,8.9-.7,17.3-1.3,24.2-1.5,2.6-.9,17.8-1,18.9-2,10.3-.3,7.4,0,21.8-.6,3.9-.2,5.7-.9,10.5-1.3l.2.5,6.5-.9,3.5.3,4.5-.4c-1.8,0-3.8,0-3.6,0,3.5-.3,7.8-.5,11.2-.6,3.4,0,6,0,6.1,0l16.5-1.3c-.3.2-1.9.3-3.7.5,6.2-.6.6.5,8.1-.3-1.1,0,.6-.3.7-.4,4.1,0,13.3-.4,20.1-.8l-1.3.4c12.3-.4,25.9-1.3,39.7-1.6-4.9,0-3.8-.6.2-.8l1.6.5c2.6-.4-4.2,0,1.1-.6,5.2,0,3.5.5.5.7l6.3-.4c.4,0-1.1.3-1.5.5,2.6-.4,10.8,0,14.5-.4h.3c13.8-.2,20.1-.4,31.3-.6.2-.4,4.6-.3,8-.7,8.3,0,17.4.4,27.4.3,7-.2,2-.3,5.2-.6.5.4,10.4.5,5.3.7h30.4c-1.6-.2-3.5-.3-2.5-.4,2.7,0,6.2.3,5.8.5h-.7c8.5,0,18.3.4,27.6,1,9.1.6,17.8,1.2,24.5,1.1,4.6,0,9.2.2,13.7.3,6.4.4-3.9,0,.9.6,15.1.2,23.8,1.4,36.2,2,4.8.9,13.3,1.6,22.2,2.2,8.9.8,18.3,1.5,24.7,2.5l-.7-.3c3.4,0,4,.5,6.5.8-.3-.2-3.6-.6-1.5-.5,7.1.6,14.3,1.5,21.5,2.3,7.2.9,14.6,1.7,21.9,2.8,14.6,2.2,29.3,4.3,43.7,6.8,10.5,1.7,6.2-.4,19.4,2.3h-3.9c10.7,1.4,21.5,3.5,32.2,5.4,10.8,2,21.4,4.4,31.8,6.2-1.3,0-1.3,0-3.3-.4,2.1.6,6.2,1.5,9.7,2.1,3.5.7,6.5,1.2,6.5,1.1,3.2.8.7.4,2.6,1,4.3,1.2,11,2.1,13.3,2.9.2,0-.3,0-.9,0,3.8.8,11.7,2.8,9.4,1.8,7.7,2,14.7,3.4,20.8,5.2,4.1.5,13.1,3.6,14.5,3.3-.7.5,13.3,4,18.2,5-1.7-.2,4.2,1.3,2.2,1.1,5.5,1.4,10.6,2.6,9.8,2,10,3.4,20.7,4.5,26.2,6.8,16.6,3.5,32.1,6.5,47.2,8.7-.7.7-16.7-2.9-16.2-2,7.2,1.2,12.8,2,18.5,2.7s11.3,1.5,18.5,2.4c3.7.6-2.1,0-3.4,0,14.4,1.5,27.9,2.8,40.8,2.6-1.5-.4,9.3-.9,10.9-1.2-1.7.4,1.3.5,4.1.5,2.9,0,5.4,0,2,.7,1.7-.2,3.8-.4,3.4-.6,2.5,0,3.3,0,.8.4,9.1-.6,5.8-.9,14.1-1.5,0,.2-1.7.4-2.5.6,2.1-.3,4.1-.7,6.6-1,2.4-.3,5.2-.8,8.7-1.1-.4,0,.3.2-1.3.4,11.7-1.5,19.8-3.7,32.6-5.8-3.7,1.4,4.4-.7,5.2-.3l6.9-1.6-2.8.3c6.1-1.3,11.3-3,16.5-4l-4.4,1.3c3.8-.9,7.5-1.9,11.2-2.8l-6.4,1.4c6-1.8-.8-.5,7.2-2.4-1.6.5,6-1.5,9.2-2,2.9-1,5.9-1.9,10.4-3,1.2,0-.8.9,0,.8,2.8-1.2,13.9-3.9,17.5-5.5-1.2.5-1.2.8-.8.7l2.3-1c2.8-.7,3.2-.7,2.8-.3,8.3-2.3-2.8,0,7.1-2.4-.8.2-.4.2-2,.7,9.9-2.6,19-5.7,28.1-8,2.8-.2-7.9,2.4-4.7,2,13-3.8,26.9-8.1,39.7-11.2l-2.4.5c1.5-1.3,9.6-2.1,16-4-1.6.4-2,.9-1.6.7,4.4-1,8.8-2.1,13.9-3.4,5-1.2,10.6-2.6,17.2-4.3l-1.6.6c5.2-1,13.7-2.8,19.3-3.9,1.6-.5,4.8-1.2,2.8-1.1,17.5-2.4,33-7,48.6-8.7-1.9.3-4.4.9-2.9.7,4.4-.9,8.8-1.6,13.1-2.3-1.1-.2-1.8,0-4.6.2,1.6-.5,5.3-1.2,8.6-1.7-5.9,1.2.1.5,2.7.3-.4,0,.4-.3.2-.4,7-.4,1-.9,10.5-1.9l-.5.3c3.5-.6,6.7-1.3,10.5-1.8,1.6.2-3.7.7-3.9,1.1,5.3-.7,10.4-2.3,15.3-2.5-2.3.4-5.5.9-7.8,1.3,5.3-.3,5.9-.5,9.9-.9h-.4l9.1-.9-2.3.2c3.3-.9,6.7-1.4,10.4-1.9,3.7-.4,7.7-.8,12.2-1.6-8.7,1.6-1.4.5-2,1.1,2.3,0,5.8-.3,4.9,0,4.2-.8,7.1-.5,13.1-1.6.3,0,4.6-.4,3.6,0,5.6-.6-1.3,0-.9-.4,4.3-.6,9.3-1,14.8-1.3s11.5-.6,17.7-1.4c10.6-1,12.6-1.5,22.5-2.4,2.8,0-1.1.5-2.3.7-1.4,0-2.6,0-3.5.2,2.6,0,6.4,0,10-.3h.2c2.4-.2,4.8-.4,7.4-.6-1,.2,0,.2,1.6.3,4.1-.2,2.7-.7,8.1-.7-.9.2-2.1.5-4.1.8,4.8-.3,9.5-.8,14.5-1,1.3.2-3,.5-4.8.7,5.2-.2,13.3-.5,15.8-1h.7q0,0,.1,0h1.3c.8,0,1.7,0,2.4,0-.6.2-.7.4.1.5,3.2-.5,4-.3,7.5-.9,2.8,0,4.9,0,4.4.3.8,0,3.3,0,4.9,0h-.2c0,0,4.3-.1,4.3-.1,1-.8.4-1.1-2.3-1ZM951.9,30h-.3c.2,0,.5-.1.9-.2,2.3-.3,3.1-.3,3.4-.2l-4,.4Zm25.3.3c-.5,0,0-.3,1.5-.4-.8.2,2.6,0,4.8-.2-1.8.2-4,.4-6.3.6Zm1401.6-21.7c.6-.2,1.3-.3,2-.4-.3.1-1,.3-2,.4Zm91-6.5c1,0,1.9,0,2.8,0-.6,0-1.6,0-2.8,0Z"/>
  </g>
</svg>